<?xml version="1.0" encoding="UTF-8"?>
<svg id="Ebene_1" xmlns="http://www.w3.org/2000/svg" width="2534" height="728.7" version="1.1" viewBox="0 0 2534 728.7">
  <!-- Generator: Adobe Illustrator 30.1.0, SVG Export Plug-In . SVG Version: 2.1.1 Build 136)  -->
  <defs>
    <style>
      .st0 {
        stroke-width: 120px;
      }

      .st0, .st1, .st2 {
        stroke: #fff;
      }

      .st0, .st1, .st2, .st3, .st4, .st5 {
        fill: none;
      }

      .st0, .st4 {
        stroke-miterlimit: 10;
      }

      .st1 {
        stroke-width: 120px;
      }

      .st1, .st5 {
        stroke-miterlimit: 10;
      }

      .st2 {
        stroke-width: 120px;
      }

      .st2, .st3 {
        stroke-miterlimit: 10;
      }

      .st3 {
        stroke: #500724;
      }

      .st3, .st4, .st5 {
        stroke-width: 48px;
      }

      .st4 {
        stroke: #9d174d;
      }

      .st6 {
        fill: #fff;
      }

      .st7 {
        fill: #500724;
      }

      .st5 {
        stroke: #db2777;
      }
    </style>
  </defs>
  <rect class="st6" x="112" y="90.9" width="346.6" height="490.2" rx="24.8" ry="24.8" transform="translate(-77.3 85.3) rotate(-15)"/>
  <rect class="st2" x="112" y="90.9" width="346.6" height="490.2" rx="24.8" ry="24.8" transform="translate(-77.3 85.3) rotate(-15)"/>
  <rect class="st3" x="112" y="90.9" width="346.6" height="490.2" rx="24.8" ry="24.8" transform="translate(-77.3 85.3) rotate(-15)"/>
  <rect class="st6" x="222.9" y="238.2" width="490.2" height="346.6" rx="24.8" ry="24.8" transform="translate(17.3 841.9) rotate(-85)"/>
  <rect class="st0" x="222.9" y="238.2" width="490.2" height="346.6" rx="24.8" ry="24.8" transform="translate(17.3 841.9) rotate(-85)"/>
  <rect class="st4" x="222.9" y="238.2" width="490.2" height="346.6" rx="24.8" ry="24.8" transform="translate(17.3 841.9) rotate(-85)"/>
  <rect class="st6" x="376.1" y="181.1" width="490.2" height="346.6" rx="24.8" ry="24.8" transform="translate(75.8 816.9) rotate(-70)"/>
  <rect class="st1" x="376.1" y="181.1" width="490.2" height="346.6" rx="24.8" ry="24.8" transform="translate(75.8 816.9) rotate(-70)"/>
  <rect class="st5" x="376.1" y="181.1" width="490.2" height="346.6" rx="24.8" ry="24.8" transform="translate(75.8 816.9) rotate(-70)"/>
  <g>
    <path class="st7" d="M1112.1,523.6c-40.4,0-70-10.5-88.7-31.5-18.7-21-28-51.5-28-91.6s4.4-55.5,13.2-73.4c8.8-17.9,21-30.6,36.7-38.1,15.7-7.4,33.7-11.2,54-11.2s40.4,4.6,53.8,13.9c13.4,9.3,23.1,22.3,29.2,39.2,6.1,16.9,9.1,36.9,9.1,60s-7.9,38.8-23.7,38.8h-91.6c0,11.2,3.4,18.9,10.3,23,6.8,4.1,16.5,6.2,29,6.2s25.6-1.6,34.9-4.8c9.3-3.2,15.9-4.8,19.8-4.8s6.3,2.6,8.9,7.8c2.6,5.2,4.6,11.1,6.2,17.8,1.5,6.7,2.3,12.3,2.3,16.9s-2.7,9.3-8.2,13.2c-5.5,4-12.3,7.4-20.5,10.3-8.2,2.9-16.6,5-25.1,6.4-8.5,1.4-15.7,2.1-21.4,2.1ZM1076.1,378.6h41.9c0-16.4-1.4-27.4-4.1-33.1-2.7-5.6-8.1-8.4-16-8.4s-14.3,2.8-17.3,8.4c-3,5.6-4.6,16.6-4.6,33.1Z"/>
    <path class="st7" d="M1278.9,523.6c-21.3,0-38.2-10.6-50.8-31.7-12.6-21.1-18.9-51.7-18.9-91.9s6.5-69.8,19.6-90.7c13.1-21,30.1-31.5,51.1-31.5s33.9,5.3,47.9,16v-98.5c0-6.4,2.7-11.2,8.2-14.4,5.5-3.2,14.3-4.8,26.4-4.8h10c12.2,0,21,1.6,26.4,4.8,5.5,3.2,8.2,8,8.2,14.4v246.2c0,14.9.4,26,1.1,33.3.8,7.3,1.5,12.7,2.3,16.2.8,3.5,1.1,6.9,1.1,10.3,0,5.2-3,9.2-9.1,12.1-6.1,2.9-13.4,4.8-22.1,5.7-8.7.9-17.3,1.4-25.8,1.4s-15.3-1.8-17.6-5.5c-2.3-3.6-4.3-10.9-6.2-21.9-4.9,9.1-11.6,16.5-20.1,22.1-8.5,5.6-19.1,8.4-31.9,8.4ZM1311.3,456.6c6.4,0,11.9-1.7,16.4-5v-99.8c-1.8-2.4-4.3-4.2-7.3-5.2-3-1.1-6.1-1.6-9.1-1.6-8.5,0-14.1,3.7-16.9,11.2-2.7,7.5-4.1,22.3-4.1,44.5s1.4,37.1,4.1,44.7c2.7,7.6,8.4,11.4,16.9,11.4Z"/>
    <path class="st7" d="M1533.4,523.6c-33.4,0-58.8-10.6-76.1-31.9-17.3-21.3-26-51.7-26-91.2s8.6-70.2,25.8-91.2c17.2-21,42.6-31.5,76.4-31.5s59.6,10.5,76.8,31.5c17.2,21,25.8,51.4,25.8,91.2s-8.7,69.9-26,91.2c-17.3,21.3-42.9,31.9-76.6,31.9ZM1533.8,456.6c8.5,0,14.1-3.8,16.9-11.4,2.7-7.6,4.1-22.5,4.1-44.7s-1.4-37-4.1-44.5c-2.7-7.4-8.4-11.2-16.9-11.2s-14.2,3.7-17.1,11.2c-2.9,7.5-4.3,22.3-4.3,44.5s1.4,37.1,4.3,44.7c2.9,7.6,8.6,11.4,17.1,11.4Z"/>
    <path class="st7" d="M1753.5,523.6c-33.4,0-58.8-10.6-76.1-31.9-17.3-21.3-26-51.7-26-91.2s8.6-70.2,25.8-91.2c17.2-21,42.6-31.5,76.4-31.5s59.6,10.5,76.8,31.5c17.2,21,25.8,51.4,25.8,91.2s-8.7,69.9-26,91.2c-17.3,21.3-42.9,31.9-76.6,31.9ZM1754,456.6c8.5,0,14.1-3.8,16.9-11.4,2.7-7.6,4.1-22.5,4.1-44.7s-1.4-37-4.1-44.5c-2.7-7.4-8.4-11.2-16.9-11.2s-14.2,3.7-17.1,11.2c-2.9,7.5-4.3,22.3-4.3,44.5s1.4,37.1,4.3,44.7c2.9,7.6,8.6,11.4,17.1,11.4Z"/>
    <path class="st7" d="M1914.5,520.9c-12.2,0-21-1.6-26.4-4.8-5.5-3.2-8.2-8-8.2-14.4v-140.9c0-14.9-.4-26-1.1-33.3-.8-7.3-1.5-12.7-2.3-16.2-.8-3.5-1.1-6.9-1.1-10.3,0-5.5,2.9-9.6,8.7-12.3,5.8-2.7,12.8-4.6,21.2-5.5,8.4-.9,16.5-1.4,24.4-1.4s12.6.8,16,2.5c3.3,1.7,5.7,4.7,7.1,9.1,1.4,4.4,2.5,10.7,3.4,18.9,5.5-8.8,13.4-16.8,23.9-23.9,10.5-7.1,22.3-10.7,35.3-10.7s26.4,3,34.6,8.9c8.2,5.9,14.3,14.8,18.2,26.7,5.2-9.1,12.4-17.3,21.7-24.6,9.3-7.3,20.3-10.9,33.1-10.9,39.2,0,58.8,21.1,58.8,63.4v160.5c0,6.4-2.7,11.2-8.2,14.4-5.5,3.2-14.3,4.8-26.4,4.8h-10c-12.2,0-21-1.6-26.4-4.8-5.5-3.2-8.2-8-8.2-14.4v-137.7c0-12.8-4.6-19.1-13.7-19.1s-11.9,3.2-18.2,9.6v147.3c0,6.4-2.7,11.2-8.2,14.4-5.5,3.2-14.3,4.8-26.4,4.8h-10c-12.2,0-21-1.6-26.4-4.8-5.5-3.2-8.2-8-8.2-14.4v-137.7c0-7-.9-11.9-2.7-14.8-1.8-2.9-5-4.3-9.6-4.3s-6.8.8-10.5,2.3c-3.6,1.5-6.7,3.5-9.1,5.9v148.6c0,6.4-2.7,11.2-8.2,14.4-5.5,3.2-14.3,4.8-26.4,4.8h-10Z"/>
    <path class="st7" d="M2253.7,258.3c-14.9,0-25.8-1.6-32.6-4.8-6.8-3.2-10.3-8-10.3-14.4v-26.4c0-6.4,3.4-11.2,10.3-14.4,6.8-3.2,17.7-4.8,32.6-4.8s26.1,1.6,32.8,4.8c6.7,3.2,10,8,10,14.4v26.4c0,6.4-3.3,11.2-10,14.4-6.7,3.2-17.6,4.8-32.8,4.8ZM2248.3,520.9c-12.2,0-21-1.6-26.4-4.8-5.5-3.2-8.2-8-8.2-14.4v-202c0-6.4,2.7-11.2,8.2-14.4,5.5-3.2,14.3-4.8,26.4-4.8h10c12.2,0,21,1.6,26.4,4.8,5.5,3.2,8.2,8,8.2,14.4v202c0,6.4-2.7,11.2-8.2,14.4-5.5,3.2-14.3,4.8-26.4,4.8h-10Z"/>
    <path class="st7" d="M2418.4,523.6c-33.4,0-58.8-10.6-76.1-31.9-17.3-21.3-26-51.7-26-91.2s8.6-70.2,25.8-91.2c17.2-21,42.6-31.5,76.4-31.5s59.6,10.5,76.8,31.5c17.2,21,25.8,51.4,25.8,91.2s-8.7,69.9-26,91.2c-17.3,21.3-42.9,31.9-76.6,31.9ZM2418.8,456.6c8.5,0,14.1-3.8,16.9-11.4,2.7-7.6,4.1-22.5,4.1-44.7s-1.4-37-4.1-44.5c-2.7-7.4-8.4-11.2-16.9-11.2s-14.2,3.7-17.1,11.2c-2.9,7.5-4.3,22.3-4.3,44.5s1.4,37.1,4.3,44.7c2.9,7.6,8.6,11.4,17.1,11.4Z"/>
  </g>
</svg>