<?xml version="1.0" encoding="UTF-8"?>
<svg id="Ebene_1" xmlns="http://www.w3.org/2000/svg" version="1.1" viewBox="0 0 2782.9 728.7">
  <!-- Generator: Adobe Illustrator 30.1.0, SVG Export Plug-In . SVG Version: 2.1.1 Build 136)  -->
  <defs>
    <style>
      .st0 {
        stroke-width: 120px;
      }

      .st0, .st1, .st2 {
        stroke: #fff;
      }

      .st0, .st1, .st2, .st3, .st4, .st5 {
        fill: none;
      }

      .st0, .st3 {
        stroke-miterlimit: 10;
      }

      .st1 {
        stroke-width: 120px;
      }

      .st1, .st4 {
        stroke-miterlimit: 10;
      }

      .st2 {
        stroke-width: 120px;
      }

      .st2, .st5 {
        stroke-miterlimit: 10;
      }

      .st3 {
        stroke: #bc0688;
        stroke-width: 36px;
      }

      .st4 {
        stroke: #f09;
        stroke-width: 36px;
      }

      .st5 {
        stroke: #906;
        stroke-width: 36px;
      }

      .st6 {
        fill: #fff;
      }

      .st7 {
        fill: #906;
      }
    </style>
  </defs>
  <g>
    <rect class="st6" x="112" y="90.9" width="346.6" height="490.2" rx="24.8" ry="24.8" transform="translate(-77.3 85.3) rotate(-15)"/>
    <rect class="st2" x="112" y="90.9" width="346.6" height="490.2" rx="24.8" ry="24.8" transform="translate(-77.3 85.3) rotate(-15)"/>
    <rect class="st5" x="112" y="90.9" width="346.6" height="490.2" rx="24.8" ry="24.8" transform="translate(-77.3 85.3) rotate(-15)"/>
  </g>
  <g>
    <rect class="st6" x="222.8" y="238.2" width="490.2" height="346.6" rx="24.8" ry="24.8" transform="translate(17.3 841.7) rotate(-85)"/>
    <rect class="st0" x="222.8" y="238.2" width="490.2" height="346.6" rx="24.8" ry="24.8" transform="translate(17.3 841.7) rotate(-85)"/>
    <rect class="st3" x="222.8" y="238.2" width="490.2" height="346.6" rx="24.8" ry="24.8" transform="translate(17.3 841.7) rotate(-85)"/>
  </g>
  <rect class="st6" x="376.1" y="181" width="490.2" height="346.6" rx="24.8" ry="24.8" transform="translate(75.8 816.9) rotate(-70)"/>
  <rect class="st1" x="376.1" y="181" width="490.2" height="346.6" rx="24.8" ry="24.8" transform="translate(75.8 816.9) rotate(-70)"/>
  <rect class="st4" x="376.1" y="181" width="490.2" height="346.6" rx="24.8" ry="24.8" transform="translate(75.8 816.9) rotate(-70)"/>
  <g>
    <path class="st7" d="M1061.4,405.4c10.4,27.8,27.8,41,55.1,41s20.7-1.4,57-19.3c4.2-1.9,9.9-3.3,15.1-3.3,14.1,0,27.8,13.7,27.8,28.3,0,28.3-50.4,54.6-103.6,54.6s-125.7-49.9-125.7-120.6,50.4-127.6,118.7-127.6,114.9,52.3,114.9,119.6-8.9,27.3-30.1,27.3h-129ZM1152.3,358.3c-3.3-13.2-5.7-18.8-9.9-25.4-8-11.3-21.2-17.9-35.3-17.9-23.1,0-38.1,13.2-48,43.3h93.2Z"/>
    <path class="st7" d="M1394.3,202.4c0-16.5.5-20.7,4.7-28.7,5.2-10.4,17.4-17.4,30.1-17.4s24.5,7.1,29.7,17.4c4.2,8,4.7,11.8,4.7,28.7v263.2c0,25-12.7,39.6-34.8,39.6s-26.4-7.5-33.4-27.3c-14.6,20.2-33,28.7-59.8,28.7s-59.3-15.5-79.1-43.3c-16.5-24-25.9-53.7-25.9-82.4s17-74.9,42.4-97c17.9-15.5,43.8-25.4,65.5-25.4s37.2,6.1,56,21.7v-77.7ZM1299.6,378.5c0,34.8,20.2,60.3,48,60.3s47.1-25.9,47.1-59.8-20.2-59.3-47.1-59.3-48,25.4-48,58.9Z"/>
    <path class="st7" d="M1686.8,296.1c20.2,22.1,31.1,52.7,31.1,86.6,0,70.6-49.4,123.9-115.4,123.9s-63.6-14.1-84.8-37.7c-20.7-22.6-31.1-52.3-31.1-88.1,0-68.8,50.4-122.4,115.8-122.4s63.1,14.1,84.3,37.7ZM1554.9,381.8c0,34.8,19.8,60.3,46.2,60.3s48.5-26.4,48.5-59.8-21.2-59.3-48.5-59.3-46.2,25.9-46.2,58.9Z"/>
    <path class="st7" d="M1928.5,296.1c20.2,22.1,31.1,52.7,31.1,86.6,0,70.6-49.4,123.9-115.4,123.9s-63.6-14.1-84.8-37.7c-20.7-22.6-31.1-52.3-31.1-88.1,0-68.8,50.4-122.4,115.8-122.4s63.1,14.1,84.3,37.7ZM1796.6,381.8c0,34.8,19.8,60.3,46.2,60.3s48.5-26.4,48.5-59.8-21.2-59.3-48.5-59.3-46.2,25.9-46.2,58.9Z"/>
    <path class="st7" d="M1982.9,299.9c0-24,13.7-40,34.4-40s21.2,4.7,33.4,22.6c19.3-17.4,36.3-24,60.7-24s34.4,4.2,47.1,11.8c7.1,3.8,11.3,8,19.3,18.4,27.8-22.6,46.1-30.1,72.5-30.1,48,0,83.4,33.9,83.4,80.1v120.6c0,16.5-.5,20.7-4.7,28.7-5.2,10.4-17.4,17.4-29.7,17.4s-25-7.1-30.1-17.4c-4.2-8-4.7-11.8-4.7-28.7v-105c0-21.2-14.1-35.8-35.3-35.8s-36.3,14.6-36.3,35.8v105c0,16.5-.5,20.7-4.7,28.7-5.2,10.4-17.4,17.4-29.7,17.4s-25-7.1-30.1-17.4c-4.2-8-4.7-11.8-4.7-28.7v-98.4c0-26.8-13.2-42.4-35.8-42.4s-35.8,15.1-35.8,35.8v105c0,16.5-.5,20.7-4.7,28.7-5.2,10.4-17.4,17.4-29.7,17.4s-25-7.1-30.1-17.4c-4.2-8-4.7-11.8-4.7-28.7v-159.2Z"/>
    <path class="st7" d="M2446.1,196.7c0,22.6-17.9,40.5-40,40.5s-40.5-17.9-40.5-40.5,18.4-40,41-40,39.6,18.4,39.6,40ZM2370.8,306c0-16.5.5-20.7,4.7-28.7,5.2-10.4,17.4-17.4,30.1-17.4s24.5,7.1,29.7,17.4c4.2,8,4.7,11.8,4.7,28.7v153c0,16.5-.5,20.7-4.7,28.7-5.2,10.4-17.4,17.4-29.7,17.4s-25-7.1-30.1-17.4c-4.2-8-4.7-11.8-4.7-28.7v-153Z"/>
    <path class="st7" d="M2663.9,296.1c20.2,22.1,31.1,52.7,31.1,86.6,0,70.6-49.4,123.9-115.4,123.9s-63.6-14.1-84.8-37.7c-20.7-22.6-31.1-52.3-31.1-88.1,0-68.8,50.4-122.4,115.8-122.4s63.1,14.1,84.3,37.7ZM2532,381.8c0,34.8,19.8,60.3,46.2,60.3s48.5-26.4,48.5-59.8-21.2-59.3-48.5-59.3-46.2,25.9-46.2,58.9Z"/>
  </g>
</svg>