<?xml version="1.0" encoding="UTF-8"?>
<svg id="Ebene_1" xmlns="http://www.w3.org/2000/svg" version="1.1" viewBox="0 0 920.9 728.6">
  <!-- Generator: Adobe Illustrator 30.1.0, SVG Export Plug-In . SVG Version: 2.1.1 Build 136)  -->
  <defs>
    <style>
      .st0 {
        stroke: #fff;
        stroke-width: 120px;
      }

      .st0, .st1, .st2, .st3 {
        fill: none;
        stroke-miterlimit: 10;
      }

      .st1 {
        stroke: #bc0688;
      }

      .st1, .st2, .st3 {
        stroke-width: 36px;
      }

      .st2 {
        stroke: #f09;
      }

      .st3 {
        stroke: #906;
      }

      .st4 {
        fill: #fff;
      }
    </style>
  </defs>
  <g>
    <rect class="st4" x="112" y="90.9" width="346.6" height="490.2" rx="24.8" ry="24.8" transform="translate(-77.3 85.3) rotate(-15)"/>
    <rect class="st0" x="112" y="90.9" width="346.6" height="490.2" rx="24.8" ry="24.8" transform="translate(-77.3 85.3) rotate(-15)"/>
    <rect class="st3" x="112" y="90.9" width="346.6" height="490.2" rx="24.8" ry="24.8" transform="translate(-77.3 85.3) rotate(-15)"/>
  </g>
  <g>
    <rect class="st4" x="222.8" y="238" width="490.2" height="346.6" rx="24.8" ry="24.8" transform="translate(17.4 841.7) rotate(-85)"/>
    <rect class="st0" x="222.8" y="238" width="490.2" height="346.6" rx="24.8" ry="24.8" transform="translate(17.4 841.7) rotate(-85)"/>
    <rect class="st1" x="222.8" y="238" width="490.2" height="346.6" rx="24.8" ry="24.8" transform="translate(17.4 841.7) rotate(-85)"/>
  </g>
  <g>
    <rect class="st4" x="376.1" y="181" width="490.2" height="346.6" rx="24.8" ry="24.8" transform="translate(75.8 816.8) rotate(-70)"/>
    <rect class="st0" x="376.1" y="181" width="490.2" height="346.6" rx="24.8" ry="24.8" transform="translate(75.8 816.8) rotate(-70)"/>
    <rect class="st2" x="376.1" y="181" width="490.2" height="346.6" rx="24.8" ry="24.8" transform="translate(75.8 816.8) rotate(-70)"/>
  </g>
</svg>