<?xml version="1.0" encoding="UTF-8"?>
<svg id="Ebene_1" xmlns="http://www.w3.org/2000/svg" width="1397.2" height="292.8" version="1.1" viewBox="0 0 1397.2 292.8">
  <!-- Generator: Adobe Illustrator 30.2.1, SVG Export Plug-In . SVG Version: 2.1.1 Build 1)  -->
  <defs>
    <style>
      .st0 {
        fill: #0a4a6e;
      }

      .st1 {
        fill: none;
        stroke: #ff4a10;
        stroke-linecap: round;
        stroke-linejoin: round;
        stroke-width: 12px;
      }
    </style>
  </defs>
  <path class="st1" d="M520,161.1"/>
  <path class="st0" d="M60.2,0v24c7.2,0,14,2.2,20.2,6.5,38.2,26.7,60.9,70,60.9,115.9s-22.8,89.2-60.9,115.9c-6.2,4.3-13,6.5-20.2,6.5s-18.4-3.7-25.2-10.2c-5-4.8-11-13.1-11-26V60.2c0-12.8,6-21.2,11-26,6.8-6.5,16-10.2,25.2-10.2V0M60.2,0C29.1,0,0,24.8,0,60.2v172.5c0,35.4,29.1,60.2,60.2,60.2s23.2-3.4,33.9-10.8c42.9-30,71.2-79.7,71.2-135.6S137,40.8,94.1,10.8C83.5,3.4,71.7,0,60.2,0h0Z"/>
  <path class="st0" d="M247.3,24c9.2,0,18.4,3.7,25.2,10.2,5,4.8,11,13.1,11,26v172.5c0,12.8-6,21.2-11,26-6.8,6.5-16,10.2-25.2,10.2s-14-2.2-20.2-6.5c-38.2-26.7-60.9-70-60.9-115.9s22.8-89.2,60.9-115.9c6.2-4.3,13-6.5,20.2-6.5h0M247.3,0c-11.5,0-23.2,3.4-33.9,10.8-42.9,30-71.2,79.7-71.2,135.6s28.3,105.6,71.2,135.6c10.7,7.5,22.4,10.8,33.9,10.8,31.1,0,60.2-24.8,60.2-60.2V60.2C307.5,24.8,278.5,0,247.3,0h0Z"/>
  <path class="st0" d="M465.6,246c-10.5,0-20.1-2.4-28.9-7.1-8.8-4.8-15.8-12.3-21-22.8-5.2-10.4-7.9-24.1-7.9-41s2.9-30.8,8.6-42.2c5.8-11.4,14.3-20,25.5-25.8,11.3-5.8,25.1-8.7,41.6-8.7s6.6.1,9.9.4,6.3.6,9,1V32h34.4v211.4h-28.9l-2.2-15.2h-1.7c-4.2,5.2-9.5,9.5-16,12.8-6.5,3.3-14,4.9-22.5,4.9ZM475.2,217.6c5,0,9.9-1,14.8-3,4.9-2,9-5.1,12.4-9.4v-78.2c-2.5-.5-5.5-1-8.9-1.4s-6.8-.6-10.1-.6c-13.5,0-23.7,3.7-30.6,11-6.9,7.3-10.3,19.5-10.3,36.4s1.4,20.8,4.1,27.3c2.7,6.5,6.6,11.2,11.5,13.9,4.9,2.7,10.6,4.1,17.1,4.1Z"/>
  <path class="st0" d="M589,76.4c-7.3,0-12.8-1.7-16.4-5-3.6-3.3-5.4-7.9-5.4-13.7s1.8-10.5,5.4-13.8c3.6-3.3,9.1-4.9,16.4-4.9s12.9,1.6,16.5,4.9c3.6,3.3,5.4,7.9,5.4,13.8s-1.8,10.4-5.4,13.7c-3.6,3.3-9.1,5-16.5,5ZM571.7,243.5V100.7h34.4v142.8h-34.4Z"/>
  <path class="st0" d="M689,246c-10.5,0-20.1-2.4-28.9-7.1-8.8-4.8-15.8-12.3-21-22.8-5.2-10.4-7.9-24.1-7.9-41s2.9-30.8,8.6-42.2c5.8-11.4,14.3-20,25.5-25.8,11.3-5.8,25.1-8.7,41.6-8.7s6.6.1,9.9.4,6.3.6,9,1V32h34.4v211.4h-28.9l-2.2-15.2h-1.7c-4.2,5.2-9.5,9.5-16,12.8-6.5,3.3-14,4.9-22.5,4.9ZM698.6,217.6c5,0,9.9-1,14.8-3,4.9-2,9-5.1,12.4-9.4v-78.2c-2.5-.5-5.5-1-8.9-1.4s-6.8-.6-10.1-.6c-13.5,0-23.7,3.7-30.6,11-6.9,7.3-10.3,19.5-10.3,36.4s1.4,20.8,4.1,27.3c2.7,6.5,6.6,11.2,11.5,13.9,4.9,2.7,10.6,4.1,17.1,4.1Z"/>
  <path class="st0" d="M827.8,246c-14.2,0-25.3-3.7-33.3-11.1-8-7.4-12-17.2-12-29.4s4.5-23.3,13.4-30.7c8.9-7.4,23.4-11.8,43.2-13.3l33-3.1,3.7,19.9-33.4,3c-9.2.9-15.7,3.1-19.8,6.5-4,3.5-6,8.3-6,14.4s1.8,10.9,5.5,14.3c3.7,3.3,9.1,5,16.2,5s9.5-.9,14.3-2.7c4.8-1.8,9.2-4.9,13.1-9.2v-56.1c0-7.2-1.2-12.9-3.5-17.1-2.3-4.1-6-7.1-11-8.8-5-1.7-11.5-2.6-19.6-2.6s-11.6.5-18.4,1.4c-6.9,1-13.6,2.4-20.2,4.4v-26.3c6.7-2,14.1-3.5,22-4.6,8-1,15.5-1.6,22.4-1.6,14,0,25.6,1.8,34.7,5.3,9.1,3.5,15.9,9.5,20.3,17.8,4.4,8.3,6.7,19.6,6.7,34v87.9h-28.4l-2.5-14.8h-1.7c-4.4,5.8-10,10.2-16.8,13-6.8,2.8-14.2,4.3-22.2,4.3Z"/>
  <path class="st0" d="M928.1,243.5V32h34.4v211.4h-34.4ZM959.2,184.2v-27.9h25.5v27.9h-25.5ZM1024.9,243.5l-52.9-73.3,49.1-69.5h37l-51,73.4v-9.2l55.6,78.5h-37.8Z"/>
  <path class="st0" d="M1068.6,128.1v-27.3h98.9v27.3h-98.9ZM1144.1,246.1c-16.3,0-28.9-4.1-37.7-12.3-8.9-8.2-13.3-21.2-13.3-39.1v-93.9l6.2-50.9h28.3v139.5c0,10.6,2,17.9,6.1,22,4.1,4.1,10.6,6.2,19.4,6.2s4.9-.2,7.5-.5c2.5-.3,5.3-.8,8.4-1.4v27.6c-3.7.8-7.7,1.5-12,2-4.3.6-8.6.9-12.8.9Z"/>
  <path class="st0" d="M1212.5,76.4c-7.3,0-12.8-1.7-16.4-5-3.6-3.3-5.4-7.9-5.4-13.7s1.8-10.5,5.4-13.8c3.6-3.3,9.1-4.9,16.4-4.9s12.9,1.6,16.5,4.9c3.6,3.3,5.4,7.9,5.4,13.8s-1.8,10.4-5.4,13.7c-3.6,3.3-9.1,5-16.5,5ZM1195.3,243.5V100.7h34.4v142.8h-34.4Z"/>
  <path class="st0" d="M1302.3,243.5l-51.4-142.8h36l39.6,116.1h-3l39.6-116.1h34l-51.6,142.8h-43.3Z"/>
</svg>