<?xml version="1.0" encoding="utf-8"?>
<!-- Generator: Adobe Illustrator 30.1.0, SVG Export Plug-In . SVG Version: 9.03 Build 0)  -->
<svg version="1.0" id="Ebene_1" xmlns="http://www.w3.org/2000/svg" xmlns:xlink="http://www.w3.org/1999/xlink" x="0px" y="0px"
	 viewBox="0 0 1410.2 328.9" enable-background="new 0 0 1410.2 328.9" xml:space="preserve">
<path fill="#4A3D55" d="M313.8,164.7c-21.2-8.3-76.7-13.4-53.2-48.9c4-6.7,30.2-37,30.1-44.8c2.8-19.8-23.2-29.9-35.1-13.9
	l-39.7,53.4c-42.2,65.2,43.6,77.4,86.8,91.7C327.8,209.7,338.9,171.8,313.8,164.7L313.8,164.7L313.8,164.7z"/>
<path fill="#4A3D55" d="M279,115.4c-12.1,17.8,3.8,25.8,19.5,29c19.6,5.2,31.9-15.3,23.1-32c-5-15.6-25.4-19.1-35.4-6.2L279,115.4
	L279,115.4L279,115.4z"/>
<path fill="#7A5550" d="M212.6,308.6c1.3-22.7-11-77.2,30.1-65.7c9.7,2,45.6,19.1,55.2,13.9c17.2-6.1,16.1-31.2-1.2-37L234,198.6
	c-75-19.8-60.2,65.1-60.4,110.6C174.1,335.5,213.7,335,212.6,308.6L212.6,308.6z"/>
<path fill="#7A5550" d="M248.7,260.2c-20.9-5.9-23.2,11.4-21.5,27.5c1.1,20.3,24.5,25.5,37.7,12c13.2-9.6,10.3-30.1-5.1-35.6
	C259.8,264.1,248.8,260.1,248.7,260.2z"/>
<path fill="#3A4F40" d="M44.5,256.6c22-5.7,70-34.4,71.8,8.3c1.1,9.9-4,49.2,3.8,56.8c11.1,14.5,34.6,5.7,34.8-12.6l0.7-66.2
	c-4.3-77.4-80.5-37.3-123.8-23.3C7,228.2,19.5,265.5,44.5,256.6L44.5,256.6L44.5,256.6z"/>
<path fill="#3A4F40" d="M101.6,276.1c-0.8-21.5-18.1-18.6-32.8-11.9c-18.9,7.4-16.7,31.1,0.3,39.4c13.2,9.6,31.8,0.5,32.3-15.8
	L101.6,276.1L101.6,276.1L101.6,276.1z"/>
<path fill="#5A4540" d="M41.9,80.8c34.1,38.3,22.9,73-27.3,83.9c-5,1.6-8.8,4.5-11.3,8.1c-10.4,15,5.3,34.7,22.7,29.2
	c43.3-14.2,128.7-26.5,86.5-91.6L73.1,57.3C57.3,36.5,25.7,60,41.9,80.8z"/>
<path fill="#5A4540" d="M41.1,141.1c20.2-7.2,12.1-23.1,1.2-34.9C4.7,70.4-19.6,164.2,41.1,141.1L41.1,141.1z"/>
<path fill="#3A6570" d="M208.3,24c-26,44.3-62.2,44.3-88.3,0c-3-4.3-7-7-11.3-8.2C91.2,10.5,77.4,31.5,88,46.4l22.2,31.2
	c48.3,62,98.6,22.9,129.9-31.2c14.9-21.6-17.2-44.4-32-22.4C208,24,208.3,24,208.3,24z"/>
<path fill="#3A6570" d="M150.7,41.8c13.2,17,25.7,4.3,33.6-9.7c11.1-17-4.8-35-23.4-31.8c-16.4,0-26,18.3-16.8,31.8L150.7,41.8
	L150.7,41.8L150.7,41.8z"/>
<path fill="#5A4540" d="M410.7,246.2V63.6h42.5v182.6H410.7z"/>
<path fill="#5A4540" d="M500.6,107.3c-8.8,0-15.3-1.9-19.5-5.6c-4.2-3.7-6.3-9-6.3-15.9c0-6.9,2.1-12.1,6.3-15.9
	c4.2-3.7,10.7-5.6,19.5-5.6c8.9,0,15.4,1.9,19.5,5.6c4.1,3.7,6.2,9,6.2,15.9c0,6.9-2.1,12.1-6.2,15.9
	C516,105.5,509.5,107.3,500.6,107.3z M479.3,246.2v-124h42.6v124H479.3z"/>
<path fill="#5A4540" d="M547.9,246.2v-124h35l2.8,12.1h1.8c4.4-4.6,9.7-8.1,15.7-10.5c6-2.4,12.6-3.6,19.8-3.6
	c8.3,0,15.7,1.7,22.2,5c6.5,3.4,11.6,8.7,15.4,16.2c3.7,7.4,5.6,17.2,5.6,29.2v75.6h-42.6v-72.9c0-6.3-1.3-10.7-3.8-13.1
	c-2.5-2.4-6.1-3.6-10.7-3.6c-2.3,0-4.7,0.3-6.9,0.8c-2.3,0.6-4.5,1.4-6.5,2.6c-2,1.2-3.8,2.6-5.3,4.4v81.7H547.9z"/>
<path fill="#5A4540" d="M737.9,298.2c-6.9,0-14-0.4-21.4-1.1c-7.4-0.8-14.7-2-21.9-3.7v-32.9c7.2,1.8,14.1,3.2,21,4.1
	c6.8,0.9,13.1,1.4,18.8,1.4c11.7,0,20.1-2.1,25.3-6.2c5.2-4.1,7.7-10.8,7.7-20.1v-6.8h-1.9c-3.5,4.4-7.9,7.8-13.2,10.2
	c-5.3,2.4-11.3,3.6-18.2,3.6c-8.4,0-16.3-2.2-23.7-6.5c-7.3-4.3-13.3-10.9-17.9-19.8c-4.6-8.9-6.8-20.1-6.8-33.7c0-21,6-37.3,18-49
	c12-11.6,30.4-17.5,55.1-17.5c5.6,0,11.5,0.3,17.5,0.8c6,0.6,11.9,1.4,17.7,2.5c5.8,1.1,11.1,2.4,15.9,4v104.1
	c0,23.3-5.9,40.2-17.7,50.7C780.4,292.9,762.3,298.2,737.9,298.2z M711.3,98.4V73.2h84.1v25.2H711.3z M750.9,212.4
	c2.9,0,5.9-0.4,8.8-1.2c2.9-0.8,5.5-2.1,7.7-3.7v-54.1c-1.7-0.4-3.7-0.7-5.8-0.9c-2.1-0.2-4.3-0.3-6.7-0.3c-8.5,0-15.1,2.4-19.7,7.1
	c-4.6,4.7-6.9,12.7-6.9,24c0,7.5,0.9,13.4,2.7,17.7c1.8,4.3,4.4,7.3,7.7,9C742.2,211.6,746.2,212.4,750.9,212.4z"/>
<path fill="#5A4540" d="M889.8,248.6c-13,0-24.2-2.4-33.6-7.2c-9.5-4.8-16.7-11.9-21.9-21.4c-5.1-9.5-7.7-21.3-7.7-35.4
	c0-14.2,2.5-26.1,7.5-35.7c5-9.5,12.2-16.7,21.6-21.5c9.4-4.8,20.8-7.2,34.1-7.2c13.3,0,24.7,2.4,34.1,7.3
	c9.4,4.9,16.6,12.1,21.5,21.6c4.9,9.5,7.4,21.3,7.4,35.3c0,14.2-2.5,26-7.6,35.5c-5.1,9.5-12.4,16.7-21.8,21.5
	C914,246.2,902.8,248.6,889.8,248.6z M889.8,216.8c4.4,0,8.1-1,11.1-2.9c3.1-1.9,5.3-5.2,6.9-9.9c1.5-4.7,2.3-11.1,2.3-19.4
	c0-8.4-0.8-15-2.4-19.7c-1.6-4.7-3.9-8-6.9-9.9c-3.1-1.9-6.7-2.9-11-2.9c-4.4,0-8.1,0.9-11.1,2.8c-3.1,1.9-5.4,5.2-6.9,9.9
	c-1.6,4.7-2.4,11.2-2.4,19.6c0,8.4,0.8,14.9,2.4,19.6c1.6,4.7,3.9,8,6.9,9.9C881.6,215.9,885.4,216.8,889.8,216.8z"/>
<path fill="#5A4540" d="M1012.3,248.6c-7.5,0-14.7-0.5-21.8-1.4c-7.1-0.9-13.7-2.3-19.8-4.1v-30.7c6,1.8,12.5,3.2,19.6,4.2
	c7,1,14.1,1.5,21.2,1.5c7.3,0,12.4-0.8,15.1-2.5c2.8-1.7,4.2-3.9,4.2-6.7c0-2.2-0.6-3.8-1.8-4.9c-1.2-1.1-3.4-1.9-6.6-2.5l-21.4-3.7
	c-11.8-2.1-20.4-6.2-25.8-12.1c-5.5-6-8.2-14.1-8.2-24.4c0-12.4,5.1-22.4,15.2-29.8c10.1-7.5,25.6-11.2,46.5-11.2
	c6.3,0,12.5,0.4,18.5,1.1c6,0.7,11.3,1.7,15.9,3V155c-4.7-1.4-10-2.4-15.7-3.1c-5.7-0.7-11.6-1.1-17.5-1.1c-6.5,0-11.4,0.5-14.8,1.4
	c-3.4,0.9-5.7,2.1-6.9,3.5c-1.2,1.4-1.9,3-1.9,4.6c0,1.8,0.6,3.3,1.9,4.4c1.3,1.1,3.5,2,6.6,2.6l21.4,3.7c10.8,2,19.2,5.7,25.1,11.1
	c5.9,5.5,8.8,13.9,8.8,25.3c0,12.7-5.1,22.8-15.2,30.1C1044.8,244.9,1030.6,248.6,1012.3,248.6z M1017.7,297.3
	c-3.8,0-7.5-0.3-11.1-0.9c-3.5-0.6-6.8-1.4-9.8-2.5v-15.7c3,1.1,6.3,2,9.8,2.5c3.5,0.6,6.5,0.8,9.1,0.8c3.6,0,6.3-0.6,8.2-1.7
	c1.8-1.1,2.8-3.1,2.8-5.8c0-5.1-3.7-7.7-11.1-7.7h-5.7V244h19.9v16.4l-9.4-5.7c9.2,0,16.2,1.9,20.9,5.7c4.7,3.8,7.1,9,7.1,15.6
	c0,6.6-2.5,11.8-7.5,15.6C1035.9,295.4,1028.2,297.3,1017.7,297.3z"/>
<path fill="#5A4540" d="M1084,155.4v-33.1h92v33.1H1084z M1152,248.6c-15.8,0-28-3.9-36.4-11.8c-8.4-7.8-12.7-20.1-12.7-36.8v-77.7
	l7.9-43.3h34.7v114.4c0,7.8,1.4,13.1,4.2,16c2.8,2.9,7.5,4.4,14.2,4.4c1.8,0,3.7-0.1,5.7-0.3c2-0.2,4.2-0.5,6.7-0.9v33.2
	c-3.3,0.8-7.2,1.4-11.5,2C1160.4,248.3,1156.2,248.6,1152,248.6z"/>
<path fill="#5A4540" d="M1231.8,248.6c-13,0-23.1-3.4-30.3-10.2c-7.2-6.8-10.8-15.6-10.8-26.4c0-12,4.2-21.4,12.7-28.1
	c8.4-6.8,22.1-10.7,41.1-11.9l23.5-1.6l4.7,22.8l-23.6,1.6c-5.9,0.4-10.1,1.7-12.8,3.9c-2.6,2.2-4,5.3-4,9.1c0,3.7,1.2,6.6,3.6,8.6
	c2.4,2,5.8,3.1,10.2,3.1c2.6,0,5.2-0.4,8-1.1c2.7-0.8,5.3-2.1,7.6-4v-42c0-5-0.8-8.9-2.5-11.9c-1.7-2.9-4.4-5-8.4-6.3
	c-3.9-1.3-9.2-1.9-15.9-1.9c-4.8,0-10.3,0.4-16.3,1.2c-6.1,0.8-11.8,2-17.3,3.6v-31.5c6.4-1.7,13.3-3,20.8-3.9
	c7.5-0.9,14.4-1.3,20.8-1.3c14.1,0,25.6,1.7,34.5,5.1c8.9,3.4,15.4,9.2,19.6,17.2c4.2,8,6.3,18.9,6.3,32.6v71.1h-34.8l-2.9-11.9
	h-1.9c-3.5,5-8.1,8.7-13.6,10.9C1244.4,247.5,1238.4,248.6,1231.8,248.6z M1249.3,106.7c-13.2,0-23.6-3.4-31.2-10.3
	c-7.6-6.9-11.8-17-12.5-30.4h25.3c0.6,6.6,2.4,11.6,5.4,14.8c3,3.2,7.3,4.9,13,4.9c5.8,0,10.2-1.6,13.2-4.9c3-3.2,4.7-8.2,5.3-14.8
	h25.3c-0.7,13.4-4.8,23.5-12.4,30.4C1272.9,103.2,1262.5,106.7,1249.3,106.7z"/>
<path fill="#5A4540" d="M1328.5,246.2v-124h34.7l3.3,15.8h1.9c3.2-6.3,7.6-10.8,13.1-13.6c5.5-2.8,11.7-4.2,18.5-4.2
	c1.8,0,3.6,0.1,5.4,0.3c1.8,0.2,3.4,0.4,4.7,0.6v38.3c-2-0.5-4.1-0.7-6.4-0.8c-2.3-0.1-4.4-0.2-6.4-0.2c-3.4,0-6.8,0.4-10.1,1.1
	c-3.4,0.8-6.5,1.9-9.3,3.3c-2.9,1.5-5.2,3.3-7,5.4v77.9H1328.5z"/>
</svg>
