<?xml version="1.0" encoding="utf-8"?>
<!-- Generator: Adobe Illustrator 30.0.0, SVG Export Plug-In . SVG Version: 9.03 Build 0)  -->
<svg version="1.0" id="Ebene_1" xmlns="http://www.w3.org/2000/svg" xmlns:xlink="http://www.w3.org/1999/xlink" x="0px" y="0px"
	 viewBox="0 0 372.6 373.8" style="enable-background:new 0 0 372.6 373.8;" xml:space="preserve">
<style type="text/css">
	.st0{fill:#4A3D55;}
	.st1{fill:#7A5550;}
	.st2{fill:#3A4F40;}
	.st3{fill:#5A4540;}
	.st4{fill:#3A6570;}
</style>
<path class="st0" d="M356.6,187.1c-24.1-9.4-87.2-15.2-60.5-55.6c4.6-7.6,34.3-42,34.2-50.9c3.2-22.5-26.4-34-39.9-15.8l-45.1,60.7
	c-47.9,74.1,49.5,88,98.6,104.2C372.5,238.3,385.1,195.2,356.6,187.1L356.6,187.1L356.6,187.1z"/>
<path class="st0" d="M317.1,131.1c-13.7,20.2,4.3,29.3,22.2,32.9c22.3,5.9,36.2-17.4,26.2-36.4c-5.7-17.7-28.9-21.7-40.2-7
	l-8.1,10.5L317.1,131.1L317.1,131.1z"/>
<path class="st1" d="M241.6,350.6c1.5-25.8-12.5-87.7,34.2-74.7c11,2.3,51.8,21.7,62.7,15.8c19.6-6.9,18.3-35.4-1.4-42l-71.2-24
	c-85.2-22.5-68.4,74-68.6,125.7C197.9,381.2,242.8,380.6,241.6,350.6L241.6,350.6z"/>
<path class="st1" d="M282.6,295.6c-23.7-6.7-26.4,13-24.4,31.3c1.3,23.1,27.8,29,42.8,13.6c15-10.9,11.7-34.2-5.8-40.4
	C295.2,300.1,282.7,295.5,282.6,295.6z"/>
<path class="st2" d="M50.6,291.6c25-6.5,79.5-39.1,81.6,9.4c1.2,11.2-4.5,55.9,4.3,64.5c12.6,16.5,39.3,6.5,39.5-14.3l0.8-75.2
	c-4.9-88-91.5-42.4-140.7-26.5C8,259.3,22.2,301.7,50.6,291.6L50.6,291.6L50.6,291.6z"/>
<path class="st2" d="M115.5,313.7c-0.9-24.4-20.6-21.1-37.3-13.5c-21.5,8.4-19,35.3,0.3,44.8c15,10.9,36.1,0.6,36.7-18L115.5,313.7
	L115.5,313.7L115.5,313.7z"/>
<path class="st3" d="M47.6,91.8c38.7,43.5,26,82.9-31,95.3c-5.7,1.8-10,5.1-12.8,9.2c-11.8,17.1,6,39.4,25.8,33.2
	c49.2-16.1,146.2-30.1,98.3-104.1L83.1,65.1C65.1,41.4,29.2,68.1,47.6,91.8z"/>
<path class="st3" d="M46.7,160.3c23-8.2,13.7-26.2,1.4-39.7C5.3,80-22.3,186.5,46.7,160.3L46.7,160.3z"/>
<path class="st4" d="M236.7,27.2c-29.6,50.3-70.7,50.3-100.3,0c-3.4-4.9-7.9-7.9-12.8-9.3c-19.9-6-35.6,17.9-23.6,34.8l25.2,35.5
	c54.9,70.5,112.1,26,147.6-35.5c16.9-24.5-19.5-50.4-36.4-25.5C236.4,27.2,236.7,27.2,236.7,27.2z"/>
<path class="st4" d="M171.3,47.5c15,19.3,29.2,4.9,38.2-11c12.6-19.3-5.4-39.8-26.6-36.1c-18.6,0-29.6,20.8-19.1,36.1L171.3,47.5
	L171.3,47.5L171.3,47.5z"/>
</svg>
