<?xml version="1.0" encoding="UTF-8"?>
<svg id="Ebene_1" xmlns="http://www.w3.org/2000/svg" version="1.1" viewBox="0 0 125.5 100.1">
  <!-- Generator: Adobe Illustrator 30.3.0, SVG Export Plug-In . SVG Version: 2.1.3 Build 182)  -->
  <defs>
    <style>
      .st0 {
        fill: #e75325;
      }
    </style>
  </defs>
  <g id="shadow">
    <g>
      <path d="M27.9,24.7c9.4-3.7,19-6.8,28.7-9.3,25.2-6.6,49.2-8.8,68.9-7.3l-4.7,22c-19.6-1.5-43.8.8-69.1,7.3-9.7,2.5-19.2,5.6-28.5,9.2l4.7-21.9Z"/>
      <path d="M9.2,56.7c13.3-6.2,27.1-11.1,41.3-14.7,20.5-5.3,40.3-7.8,57.5-7.8l-4.7,22c-17.2,0-37.2,2.5-57.7,7.8-14.1,3.6-27.9,8.6-41.2,14.7l4.7-22Z"/>
      <path d="M54.9,87.5c-4.8,1-9.6,2.1-14.5,3.3-9.7,2.5-19.2,5.6-28.6,9.3l4.5-22c9.4-3.7,19.1-6.8,28.8-9.3,4.8-1.2,9.6-2.3,14.4-3.2l-4.7,22Z"/>
    </g>
  </g>
  <g id="f-type">
    <g>
      <path class="st0" d="M23.5,17.1c9.5-3.7,19.2-6.8,29.1-9.3C78.1,1.2,102.4-1.1,122.2.4l-4.7,22c-19.8-1.5-44.3.8-69.8,7.3-9.8,2.5-19.4,5.6-28.8,9.2l4.6-21.9Z"/>
      <path class="st0" d="M4.7,50c13.7-6.4,27.9-11.5,42.5-15.3,20.5-5.3,40.3-7.9,57.5-7.8l-4.7,22c-17.2,0-37.2,2.5-57.7,7.8-14.5,3.7-28.7,8.8-42.3,15.2l4.7-22Z"/>
      <path class="st0" d="M12.1,71.2c9.6-3.7,19.4-6.8,29.4-9.3,5-1.3,10-2.4,15-3.4l-5,23.4c-5,1-10,2.1-15.2,3.4-9.9,2.5-19.6,5.6-29.1,9.2l4.9-23.3Z"/>
    </g>
  </g>
</svg>