<?xml version="1.0" encoding="UTF-8"?>
<svg id="svg879" xmlns="http://www.w3.org/2000/svg" xmlns:svg="http://www.w3.org/2000/svg" version="1.1" viewBox="0 0 682.7 682.7">
  <!-- Generator: Adobe Illustrator 30.3.0, SVG Export Plug-In . SVG Version: 2.1.3 Build 182)  -->
  <defs>
    <style>
      .st0 {
        fill: #4b164c;
      }
    </style>
  </defs>
  <path class="st0" d="M26.7,682.7c-7,0-13.8-2.7-18.9-7.8s-9.6-17.5-6.5-27l44-136.6C15.6,459.7,0,401.2,0,341.3s9-90.8,26.8-132.9c17.2-40.6,41.8-77.1,73.1-108.5s67.8-55.9,108.5-73.1C250.6,9,295.3,0,341.3,0s90.8,9,132.9,26.8c40.6,17.2,77.1,41.8,108.5,73.1s55.9,67.8,73.1,108.5c17.8,42.1,26.8,86.8,26.8,132.9s-9,90.8-26.8,132.9c-17.2,40.6-41.8,77.1-73.1,108.5s-67.8,55.9-108.5,73.1c-42.1,17.8-86.8,26.8-132.9,26.8s-118.3-15.6-169.9-45.3l-136.6,44c-2.7.9-5.4,1.3-8.2,1.3ZM174.7,581.6c4.9,0,9.9,1.4,14.1,4.1,45.7,28.5,98.4,43.6,152.4,43.6,76.9,0,149.3-30,203.6-84.4s84.4-126.7,84.4-203.6-30-149.3-84.4-203.6c-54.4-54.4-126.7-84.4-203.6-84.4s-149.3,30-203.6,84.4-84.4,126.7-84.4,203.6,15.1,106.8,43.6,152.4c4.2,6.7,5.2,14.8,2.8,22.3l-31.7,98.6,98.6-31.7c2.7-.9,5.4-1.3,8.2-1.3Z"/>
</svg>